<svg height="48" viewBox="0 0 48 48" width="48" xmlns="http://www.w3.org/2000/svg"><g transform="translate(-1382 -5725)"><circle cx="1406" cy="5749" fill="#231f20" r="24"/><path d="m1407.949 5739.446a1.319 1.319 0 0 0 -1.005-.451 1.364 1.364 0 0 0 -1.02.451 1.463 1.463 0 0 0 -.417 1.05 1.518 1.518 0 0 0 .417 1.066l6.176 6.438h-16.65a1.367 1.367 0 0 0 -1.02.45 1.461 1.461 0 0 0 -.417 1.05 1.515 1.515 0 0 0 .417 1.065 1.388 1.388 0 0 0 1.02.435h16.65l-6.178 6.453a1.466 1.466 0 0 0 -.417 1.051 1.516 1.516 0 0 0 .417 1.065 1.39 1.39 0 0 0 1.02.435 1.343 1.343 0 0 0 1.005-.435l8.62-9a1.488 1.488 0 0 0 .431-1.065 1.436 1.436 0 0 0 -.431-1.05c0-.01 0-.015-.014-.015z" fill="#fff"/></g></svg>