<svg height="48" viewBox="0 0 48 48" width="48" xmlns="http://www.w3.org/2000/svg"><g transform="translate(-251 -5725)"><circle cx="275" cy="5749" fill="#231f20" r="24"/><path d="m273.112 5739.155a1.347 1.347 0 0 1 1.013-.441 1.393 1.393 0 0 1 1.027.441 1.414 1.414 0 0 1 .419 1.028 1.464 1.464 0 0 1 -.419 1.044l-6.22 6.3h16.768a1.4 1.4 0 0 1 1.027.441 1.412 1.412 0 0 1 .419 1.029 1.463 1.463 0 0 1 -.419 1.043 1.416 1.416 0 0 1 -1.027.426h-16.768l6.22 6.318a1.413 1.413 0 0 1 .419 1.029 1.462 1.462 0 0 1 -.419 1.043 1.418 1.418 0 0 1 -1.027.426 1.371 1.371 0 0 1 -1.013-.426l-8.679-8.816a1.437 1.437 0 0 1 -.433-1.04 1.388 1.388 0 0 1 .434-1.029.013.013 0 0 1 .014-.015z" fill="#fff"/></g></svg>