<svg height="94" viewBox="0 0 94 94" width="94" xmlns="http://www.w3.org/2000/svg"><g transform="translate(-355 -5576)"><path d="m47 0a47 47 0 1 1 -47 47 47 47 0 0 1 47-47z" fill="#fff" transform="translate(355 5576)"/><circle cx="402" cy="5623" fill="#fff" r="47"/><path d="m424.616 5610.43a16.271 16.271 0 0 0 -3.4-2.6v-1.244a1.3 1.3 0 0 0 -1.09-1.279 21.521 21.521 0 0 0 -3.545-.3 17.519 17.519 0 0 0 -12.156 4.64 18.087 18.087 0 0 0 -10.137-3.564 13.793 13.793 0 0 0 -9.907 4.352 1.291 1.291 0 0 0 -.383.917v22.772a1.292 1.292 0 0 0 .62 1.1 1.318 1.318 0 0 0 1.271.062 20.634 20.634 0 0 1 8.265-1.625 22.939 22.939 0 0 1 9.785 2.213h.006a1.336 1.336 0 0 0 .249.084l.044.009a1.363 1.363 0 0 0 .259.028h.021a1.471 1.471 0 0 0 .2-.018 1.314 1.314 0 0 0 .672-.248 22.9 22.9 0 0 1 9.455-2.069 20.643 20.643 0 0 1 8.262 1.624 1.315 1.315 0 0 0 1.273-.057 1.293 1.293 0 0 0 .621-1.1v-22.772a1.3 1.3 0 0 0 -.385-.925zm-18.7 1.4a14.829 14.829 0 0 1 10.666-4.236 18.486 18.486 0 0 1 2.02.114v20.153c-.417-.035-.9-.059-1.444-.059a18.189 18.189 0 0 0 -11.242 3.9zm-19.3 20.392v-20.322a11.093 11.093 0 0 1 7.673-3.224 15.8 15.8 0 0 1 8.9 3.295v20.763a25.34 25.34 0 0 0 -9.036-1.671 24.69 24.69 0 0 0 -7.535 1.161zm35.766 0a24.7 24.7 0 0 0 -7.539-1.164 25 25 0 0 0 -2.673.148 15.676 15.676 0 0 1 4.988-.812 12.19 12.19 0 0 1 2.448.218 1.321 1.321 0 0 0 1.115-.243 1.3 1.3 0 0 0 .5-1.019v-18.518c.394.352.784.708 1.164 1.061z" fill="#c3d8ef"/></g></svg>