<svg height="94" viewBox="0 0 94 94" width="94" xmlns="http://www.w3.org/2000/svg"><g transform="translate(-972 -5750)"><circle cx="1019" cy="5797" fill="#fff" r="47"/><path d="m1019.949 5820.952a1.323 1.323 0 0 1 -1.325-1.32v-5.952c-9.12-1.725-15.624-8.58-15.624-16.661 0-9.415 8.972-17.074 20-17.074s20 7.659 20 17.074c0 8.571-7.369 15.75-17.237 16.911l-4.748 6.48a1.315 1.315 0 0 1 -1.066.542zm3.053-38.367c-9.568 0-17.353 6.475-17.353 14.434 0 7.084 6.091 13.07 14.483 14.234a1.323 1.323 0 0 1 1.142 1.309v3.026l2.7-3.687a1.32 1.32 0 0 1 .948-.535c8.8-.808 15.433-6.974 15.433-14.345-.001-7.961-7.785-14.436-17.355-14.436zm-5.989 12.232a2.068 2.068 0 1 0 2.074 2.068 2.071 2.071 0 0 0 -2.074-2.068zm6.278 0a2.068 2.068 0 1 0 2.074 2.068 2.071 2.071 0 0 0 -2.074-2.068zm6.279 0a2.068 2.068 0 1 0 2.074 2.068 2.071 2.071 0 0 0 -2.074-2.068z" fill="#c3d8ef"/></g></svg>