<svg height="94" viewBox="0 0 94 94" width="94" xmlns="http://www.w3.org/2000/svg"><g transform="translate(-417 -3376)"><circle cx="464" cy="3423" fill="#f3f7fc" r="47"/><path d="m452.211 3439a1.187 1.187 0 0 1 -1.2-1.2v-29.6a1.187 1.187 0 0 1 1.2-1.2h25.576a1.187 1.187 0 0 1 1.2 1.2v29.53a1.165 1.165 0 0 1 -1.2 1.277zm1.2-2.479h23.249v-27.05h-23.245zm16.324-2.63a1.2 1.2 0 1 1 0-2.4h2.783a1.2 1.2 0 1 1 0 2.4zm-6.244 0a1.2 1.2 0 1 1 0-2.4h2.784a1.2 1.2 0 1 1 0 2.4zm-6.394 0a1.2 1.2 0 1 1 0-2.4h2.783a1.2 1.2 0 1 1 0 2.4zm12.638-4.282a1.2 1.2 0 1 1 0-2.4h2.783a1.2 1.2 0 1 1 0 2.4zm-6.244 0a1.2 1.2 0 1 1 0-2.4h2.784a1.2 1.2 0 1 1 0 2.4zm-6.394 0a1.2 1.2 0 1 1 0-2.4h2.783a1.2 1.2 0 1 1 0 2.4zm12.638-4.434a1.2 1.2 0 1 1 0-2.4h2.783a1.2 1.2 0 1 1 0 2.4zm-6.244 0a1.2 1.2 0 1 1 0-2.4h2.784a1.2 1.2 0 1 1 0 2.4zm-6.394 0a1.2 1.2 0 1 1 0-2.4h2.783a1.2 1.2 0 1 1 0 2.4zm-.3-4.658a1.187 1.187 0 0 1 -1.2-1.2v-6.086a1.187 1.187 0 0 1 1.2-1.2h15.721a1.187 1.187 0 0 1 1.2 1.2v6.086a1.144 1.144 0 0 1 -1.2 1.2zm1.278-2.4h13.316v-3.682h-13.313z" fill="#c3d8ef"/></g></svg>