<svg height="94" viewBox="0 0 94 94" width="94" xmlns="http://www.w3.org/2000/svg"><g transform="translate(-417 -4915)"><circle cx="464" cy="4962" fill="#f3f7fc" r="47"/><path d="m448.128 4949a1.134 1.134 0 0 0 0 2.268h3.772c1.876 4.649 3.724 9.307 5.585 13.964l-1.712 4.124a1.134 1.134 0 0 0 1.051 1.571h18.894a1.134 1.134 0 1 0 0-2.268h-17.198l.98-2.339 18.2-1.453a1.166 1.166 0 0 0 1.016-.875l2.267-9.829a1.187 1.187 0 0 0 -1.11-1.382h-24.931l-1.228-3.072a1.162 1.162 0 0 0 -1.051-.708zm7.723 6.049h22.59l-1.759 7.632-17.229 1.371zm4.747 17.39a3.78 3.78 0 1 0 3.779 3.781 3.8 3.8 0 0 0 -3.777-3.782zm11.336 0a3.78 3.78 0 1 0 3.779 3.781 3.8 3.8 0 0 0 -3.779-3.782zm-11.336 2.268a1.512 1.512 0 1 1 -1.512 1.513 1.5 1.5 0 0 1 1.514-1.513zm11.336 0a1.512 1.512 0 1 1 -1.512 1.513 1.5 1.5 0 0 1 1.512-1.513z" fill="#c3d8ef"/></g></svg>