<svg height="94" viewBox="0 0 94 94" width="94" xmlns="http://www.w3.org/2000/svg"><g transform="translate(-355 -5226)"><circle cx="402" cy="5273" fill="#f3f7fc" r="47"/><path d="m412.771 5291a1.256 1.256 0 0 1 -.894-.368l-4.075-4.061-3.662 3.623a1.265 1.265 0 0 1 -2.09-.5l-7.02-21.1a1.264 1.264 0 0 1 1.608-1.588l21.064 7.165a1.257 1.257 0 0 1 .483 2.083l-3.622 3.595 4.067 4.054a1.258 1.258 0 0 1 0 1.781l-4.965 4.946a1.26 1.26 0 0 1 -.889.368zm-4.965-7.465a1.268 1.268 0 0 1 .894.369l4.071 4.057 3.178-3.166-4.07-4.055a1.255 1.255 0 0 1 0-1.781l3.082-3.057-16.731-5.69 5.578 16.763 3.107-3.075a1.263 1.263 0 0 1 .886-.364zm-11.578-7.134a8.2 8.2 0 1 1 8.229-8.2v.155l-2.573-.876a5.7 5.7 0 1 0 -6.436 6.346l.855 2.575z" fill="#c3d8ef"/></g></svg>