<svg height="21.147" viewBox="0 0 141 21.147" width="141" xmlns="http://www.w3.org/2000/svg" xmlns:xlink="http://www.w3.org/1999/xlink"><clipPath id="a"><path d="m17.772 23.815h141v21.148h-141z"/></clipPath><clipPath id="b"><path d="m66.404 23.398h21.51v8.964h-21.51z"/></clipPath><clipPath id="c"><path d="m77.225 31.932-6.56-7.141s-.749-.915.658-.951c1.423-.037 4.653 0 4.653 0a2.275 2.275 0 0 1 1.492.62c.849.8 6.384 7.478 6.384 7.478z"/></clipPath><linearGradient id="d" gradientUnits="objectBoundingBox" x1="-4.182" x2="-4.155" y1="3.218" y2="3.218"><stop offset="0" stop-color="#a3063f"/><stop offset=".99" stop-color="#bd5e6b"/><stop offset="1" stop-color="#bd5e6b"/></linearGradient><clipPath id="e"><path d="m61.546 31.52h26.368v13.868h-26.368z"/></clipPath><clipPath id="f"><path d="m83.852 31.949-11.329 12.394a2.925 2.925 0 0 1 -2.063.62h-4.3a.591.591 0 0 1 -.463-.243c-.137-.178-.144-.444.2-.874.658-.826 10.857-11.9 10.857-11.9z"/></clipPath><linearGradient id="g" x1="-2.779" x2="-2.759" xlink:href="#d" y1="1.918" y2="1.918"/><g clip-path="url(#a)" transform="translate(-17.772 -23.815)"><g fill="#00132a"><path d="m156.179 37.786h2.593v-11.86h-2.334l-4.706 5.285-4.705-5.285h-2.334v11.86h2.594v-8.005l4.2 4.779h.464l4.224-4.779zm-22.286-11.86h-2.593v6.854c0 3.017 1.982 5.2 5.705 5.2 3.761 0 5.762-2.407 5.762-5.2v-6.854h-2.594v6.68a2.865 2.865 0 0 1 -3.173 3.104 2.8 2.8 0 0 1 -3.112-3.087zm-7.114 11.86h2.594v-11.86h-2.594zm-5.779-4.64c1.13.3 1.8.611 1.8 1.256 0 .784-.853 1.325-2.372 1.325a7.833 7.833 0 0 1 -3.89-1.116l-.612 2.32a10.507 10.507 0 0 0 4.446 1.029c3.038 0 5.132-1.518 5.132-3.749 0-1.692-1.112-2.668-3.39-3.279l-2.334-.628c-.907-.244-1.371-.506-1.371-1.151 0-.68.667-1.151 2.26-1.151a8.274 8.274 0 0 1 3.872.994l.742-2.285a10.875 10.875 0 0 0 -4.52-.942c-3.465 0-5.039 1.622-5.039 3.593 0 1.6.982 2.7 2.89 3.174zm-16.23-1.273a3.93 3.93 0 1 1 3.928 3.8 3.752 3.752 0 0 1 -3.928-3.8m-2.556 0a6.146 6.146 0 0 0 6.465 6.086c3.724 0 6.5-2.616 6.5-6.086a6.495 6.495 0 0 0 -12.968 0m-5.205-3.82a2.112 2.112 0 0 1 2.3 2.18 2.134 2.134 0 0 1 -2.3 2.145h-3.02v-4.324zm-5.606 9.733h2.593v-3.279h3.427a4.265 4.265 0 0 0 4.576-4.256c0-2.965-2.112-4.326-4.576-4.326h-6.02z"/><path d="m70.329 37.8v-2.146h-7.495v-2.864h6.141v-2.148h-6.141v-2.567h7.495v-2.149h-9.981v11.874zm-14.656 0h2.6v-11.874h-2.34l-4.713 5.292-4.713-5.292h-2.336v11.874h2.6v-8.014l4.211 4.785h.464l4.23-4.785zm-23.227-5.918a3.756 3.756 0 0 1 3.932-3.807 3.809 3.809 0 1 1 0 7.615 3.776 3.776 0 0 1 -3.932-3.807m-2.561 0a6.154 6.154 0 0 0 6.474 6.1c3.729 0 6.512-2.62 6.512-6.1a6.171 6.171 0 0 0 -6.512-6.13 6.161 6.161 0 0 0 -6.474 6.13"/><path d="m28.565 27.539a5.082 5.082 0 0 0 -4.3-1.787c-3.729 0-6.493 2.27-6.493 6.13 0 3.825 2.764 6.1 6.493 6.1a8.1 8.1 0 0 0 5.176-1.921l-1.224-1.834a6.106 6.106 0 0 1 -3.9 1.485 3.561 3.561 0 0 1 -3.859-3.825 3.546 3.546 0 0 1 3.766-3.86 2.683 2.683 0 0 1 2.232.9z"/></g><path d="m76.786 31.944-6.121-7.144s-.746-.868.658-.95 4.653 0 4.653 0a2.277 2.277 0 0 1 1.492.62c.849.8 6.384 7.477 6.384 7.477z" fill="#a3063f"/><path d="m83.852 31.949-11.329 12.394a2.925 2.925 0 0 1 -2.063.62h-4.3a.592.592 0 0 1 -.464-.243c-.136-.178-.144-.444.2-.874.658-.826 10.892-11.9 10.892-11.9z" fill="#a3063f"/><g clip-path="url(#b)" opacity=".7"><g clip-path="url(#c)"><path d="m0 0h16.25v14.622h-16.25z" fill="url(#d)" transform="matrix(.772 -.636 .636 .772 65.675 27.094)"/></g></g><g clip-path="url(#e)" opacity=".7"><g clip-path="url(#f)"><path d="m0 0h22.225v21.586h-22.225z" fill="url(#g)" transform="matrix(.6238796 -.78152047 .78152047 .6238796 58.809 39.896)"/></g></g><path d="m84.682 31.477-2.69-3.127s1.345-1.572 1.594-1.876a2.156 2.156 0 0 1 1.528-.675h3.21a.654.654 0 0 1 .57.351.507.507 0 0 1 -.093.574c-.651.73-4.118 4.753-4.118 4.753" fill="#00132a"/><path d="m84.682 32.758-2.691 3.064 1 1.308a2.578 2.578 0 0 0 1.78.834h3.046a.664.664 0 0 0 .516-.259.578.578 0 0 0 -.032-.664c-.489-.57-3.62-4.284-3.62-4.284" fill="#00132a"/></g></svg>