<svg height="94" viewBox="0 0 94 94" width="94" xmlns="http://www.w3.org/2000/svg"><g transform="translate(-972 -5402)"><circle cx="1019" cy="5449" fill="#f3f7fc" r="47"/><path d="m1009.437 5460a1.438 1.438 0 0 1 -1.437-1.437v-5.75a1.437 1.437 0 1 1 2.875 0v4.312h17.25v-4.312a1.437 1.437 0 1 1 2.875 0v5.75a1.437 1.437 0 0 1 -1.437 1.438zm9.042-6.167-5.75-5.75a1.437 1.437 0 0 1 2.027-2.026l3.307 3.3v-10.915a1.437 1.437 0 1 1 2.875 0v10.91l3.291-3.292a1.437 1.437 0 0 1 2.027 2.026l-5.661 5.662a1.435 1.435 0 0 1 -1.094.5h-.01a1.431 1.431 0 0 1 -1.012-.416z" fill="#c3d8ef"/></g></svg>