<svg height="15" viewBox="0 0 14.996 15" width="14.996" xmlns="http://www.w3.org/2000/svg"><path d="m1414.667 7721a4.143 4.143 0 0 1 -4.137-4.141v-6.72a4.143 4.143 0 0 1 4.137-4.139h6.72a4.143 4.143 0 0 1 4.139 4.139v6.72a4.144 4.144 0 0 1 -4.139 4.141zm-2.808-10.861v6.72a2.812 2.812 0 0 0 2.808 2.81h6.72a2.811 2.811 0 0 0 2.808-2.81v-6.72a2.813 2.813 0 0 0 -2.808-2.81h-6.72a2.814 2.814 0 0 0 -2.808 2.811zm2.3 3.36a3.865 3.865 0 1 1 3.864 3.866 3.868 3.868 0 0 1 -3.86-3.865zm1.331 0a2.534 2.534 0 1 0 2.533-2.535 2.537 2.537 0 0 0 -2.529 2.536zm5.869-3.327a.977.977 0 0 1 .69-1.667.976.976 0 0 1 .69 1.667.978.978 0 0 1 -1.38 0z" fill="#231f20" transform="translate(-1410.529 -7706)"/></svg>