<svg height="94" viewBox="0 0 94 94" width="94" xmlns="http://www.w3.org/2000/svg"><g transform="translate(-972 -5047)"><circle cx="1019" cy="5094" fill="#fff" r="47"/><path d="m1011.745 5110a7.868 7.868 0 0 1 -7.747-7.967v-16.074a7.868 7.868 0 0 1 7.747-7.968h15.506a7.87 7.87 0 0 1 7.749 7.968v16.074a7.87 7.87 0 0 1 -7.749 7.967zm-4.878-7.967a4.956 4.956 0 0 0 4.878 5.017h15.506a4.955 4.955 0 0 0 4.878-5.017v-10.382h-5.812a7.7 7.7 0 0 1 .7 3.215 7.362 7.362 0 1 1 -14.719 0 7.7 7.7 0 0 1 .7-3.215h-6.13zm8.147-7.021a4.987 4.987 0 1 0 4.987-5 5 5 0 0 0 -4.987 5.003zm8.9-6.311h8.214v-2.742a4.954 4.954 0 0 0 -4.878-5.017h-15.506a4.955 4.955 0 0 0 -4.878 5.017v2.742h8.531a7.171 7.171 0 0 1 8.518 0zm2.444-1.463a.876.876 0 0 1 -.86-.885v-2.735a.876.876 0 0 1 .86-.886h2.66a.877.877 0 0 1 .862.886v2.735a.877.877 0 0 1 -.862.885z" fill="#c3d8ef"/></g></svg>