<svg height="94" viewBox="0 0 94 94" width="94" xmlns="http://www.w3.org/2000/svg"><g transform="translate(-972 -4161)"><circle cx="1019" cy="4208" fill="#f3f7fc" r="47"/><path d="m1011.695 4224a4.829 4.829 0 0 1 -4.7-4.456v-24.718c0-2.483 2.421-3.824 4.7-3.824h17.227a3.712 3.712 0 0 1 4.015 3.824v5.533l.549-.381a.873.873 0 0 1 .2-.207l1.531-1.086a1.738 1.738 0 0 1 1-.29 3.512 3.512 0 0 1 2.7 1.815c1.747 2.464.847 4 .739 4.167a.888.888 0 0 1 -.229.238l-1.261.9a.883.883 0 0 1 -.319.407l-4.908 3.414v10.212a4.207 4.207 0 0 1 -4.015 4.456zm-2.062-29.173v24.718a2.247 2.247 0 0 0 2.062 1.816h17.227c.862 0 1.377-.923 1.377-1.816v-8.377l-1.4.973s0 0 0 0a.907.907 0 0 1 -.214.1c-.016 0-.03.011-.046.016a.217.217 0 0 1 -.032.011l-7.135 1.738a.914.914 0 0 1 -.208.024.88.88 0 0 1 -.747-1.344l.083-.132h-7.005a.88.88 0 1 1 0-1.76h7.475a.872.872 0 0 1 .516.171l1.745-2.811h-9.736a.88.88 0 0 1 0-1.761h10.83l.031-.05a.88.88 0 0 1 .244-.258l5.6-3.9v-7.368c0-.384 0-1.185-1.377-1.185h-17.227c-.865.006-2.063.418-2.063 1.19zm13.509 16.967 3.8-.925-1.7-2.452zm3.28-4.758 2.194 3.16 7.5-5.22-2.2-3.159zm9.761-6.877-.759.54 2.17 3.061.608-.433a2.818 2.818 0 0 0 -.721-2.1c-.724-1.021-1.182-1.073-1.267-1.073zm-22.592 3.6a.88.88 0 1 1 0-1.76h12.751a.88.88 0 0 1 0 1.76zm0-3.96a.879.879 0 1 1 0-1.759h12.751a.879.879 0 1 1 0 1.759z" fill="#c3d8ef"/></g></svg>