<svg xmlns="http://www.w3.org/2000/svg" width="23.016" height="34.989" viewBox="0 0 23.016 34.989"><path d="M433.39,935.99v-2.5h6.8v2.5Zm2.974-5.79a1.217,1.217,0,0,1-.784-.286c-11.376-9.529-10.6-17.312-10.56-17.639a11.485,11.485,0,0,1,22.968.14c.031.186.809,7.969-10.566,17.5a1.238,1.238,0,0,1-.788.286Zm-8.918-17.785c-.013.19-.542,6.75,9.051,15.1,9.593-8.347,9.068-14.9,9.059-14.971a9.055,9.055,0,1,0-18.11-.126Zm4.7-1.013a4.5,4.5,0,1,1,5.337,5.269,4.705,4.705,0,0,1-.919.091A4.492,4.492,0,0,1,432.141,911.4Zm2.352.887a2.064,2.064,0,1,0,2.065-2.048A2.062,2.062,0,0,0,434.493,912.29Z" transform="translate(-424.995 -901.001)" fill="#c3d8ef"/></svg>