<svg xmlns="http://www.w3.org/2000/svg" width="10.997" height="15.022" viewBox="0 0 10.997 15.022"><path d="M1387.108,7707.539a5.168,5.168,0,0,0-3.753-1.539,5.7,5.7,0,0,0-4.351,1.8,5.523,5.523,0,0,0-1.467,3.689c0,1.672.651,2.956,1.742,3.433a.543.543,0,0,0,.219.048.5.5,0,0,0,.476-.421c.037-.149.122-.516.159-.675a.665.665,0,0,0-.158-.685,2.289,2.289,0,0,1-.462-1.492,3.633,3.633,0,0,1,3.626-3.78,2.786,2.786,0,0,1,3.03,2.976,6.557,6.557,0,0,1-.655,3.021,1.948,1.948,0,0,1-1.6,1.2,1.033,1.033,0,0,1-.844-.415,1.1,1.1,0,0,1-.17-.905c.083-.378.2-.773.307-1.156a7.6,7.6,0,0,0,.39-1.881,1.329,1.329,0,0,0-1.281-1.5c-.973,0-1.736,1.062-1.736,2.417a3.823,3.823,0,0,0,.239,1.353c-.123.558-.851,3.874-.99,4.5-.08.365-.561,3.248.235,3.478.9.259,1.7-2.549,1.777-2.867.066-.258.3-1.233.439-1.833a2.606,2.606,0,0,0,1.805.75,3.941,3.941,0,0,0,3.233-1.737,7.332,7.332,0,0,0,1.215-4.263A5.1,5.1,0,0,0,1387.108,7707.539Z" transform="translate(-1377.537 -7706)" fill="#231f20"/></svg>