<svg height="94" viewBox="0 0 94 94" width="94" xmlns="http://www.w3.org/2000/svg"><g transform="translate(-972 -4586)"><path d="m47 0a47 47 0 1 1 -47 47 47 47 0 0 1 47-47z" fill="#f3f7fc" transform="translate(972 4586)"/><circle cx="1019" cy="4633" fill="#f3f7fc" r="47"/><path d="m1014.653 4649.938a1.011 1.011 0 0 1 -.678-.948v-8.322l-11.354-4.732a.977.977 0 0 1 -.608-.877.991.991 0 0 1 .529-.928l29.93-15.968a1.006 1.006 0 0 1 1.077.091 1.019 1.019 0 0 1 .369 1.018l-5.985 25.946a.989.989 0 0 1 -.519.659 1.022 1.022 0 0 1 -.469.119.987.987 0 0 1 -.378-.079l-10.6-4.417v4.5l1.2-1.6a1 1 0 1 1 1.6 1.2l-2.992 3.992a.984.984 0 0 1 -.8.4 1.173 1.173 0 0 1 -.322-.054zm11.584-6.317 5.227-22.663-26.138 13.951 9.38 3.908 8.508-9.457a1 1 0 1 1 1.476 1.337l-8.036 8.931z" fill="#c3d8ef"/></g></svg>