<svg xmlns="http://www.w3.org/2000/svg" width="12.001" height="14.997" viewBox="0 0 12.001 14.997"><path d="M1184.536,28a.534.534,0,0,1-.53-.537V23.729a2.932,2.932,0,0,1,2.879-2.975.51.51,0,0,1,.2.041,7.224,7.224,0,0,0,5.839,0,.506.506,0,0,1,.2-.041,2.932,2.932,0,0,1,2.878,2.975v3.732a.533.533,0,0,1-.53.537Zm8.635-2.579v1.5h1.777V23.729a1.869,1.869,0,0,0-1.721-1.9,8.3,8.3,0,0,1-6.439,0,1.87,1.87,0,0,0-1.722,1.9v3.195h1.777v-1.5a.53.53,0,1,1,1.059,0v1.5h4.208v-1.5a.53.53,0,1,1,1.06,0Zm-7.068-8.586a3.9,3.9,0,1,1,3.9,3.833A3.873,3.873,0,0,1,1186.1,16.835Zm1.059,0a2.846,2.846,0,1,0,2.845-2.759A2.805,2.805,0,0,0,1187.162,16.835Z" transform="translate(-1184.006 -13.002)" fill="#231f20"/></svg>