<svg height="94" viewBox="0 0 94 94" width="94" xmlns="http://www.w3.org/2000/svg"><g transform="translate(-355 -4500)"><path d="m47 0a47 47 0 1 1 -47 47 47 47 0 0 1 47-47z" fill="#fff" transform="translate(355 4500)"/><circle cx="402" cy="4547" fill="#fff" r="47"/><path d="m395.689 4558a3.694 3.694 0 0 1 -3.689-3.69v-13.568a3.693 3.693 0 0 1 3.689-3.689h6.479a1.526 1.526 0 1 1 0 3.052h-6.479a.637.637 0 0 0 -.636.637v13.568a.637.637 0 0 0 .636.637h13.569a.638.638 0 0 0 .637-.637v-6.479a1.526 1.526 0 1 1 3.052 0v6.478a3.694 3.694 0 0 1 -3.689 3.69zm6.972-10.663a1.525 1.525 0 0 1 0-2.157l10.128-10.128h-4.806a1.526 1.526 0 1 1 0-3.052h6.327a3.693 3.693 0 0 1 3.689 3.689v6.326a1.527 1.527 0 1 1 -3.053 0v-4.8l-10.127 10.127a1.526 1.526 0 0 1 -2.159 0z" fill="#c3d8ef"/></g></svg>