<svg xmlns="http://www.w3.org/2000/svg" width="15.001" height="19.998" viewBox="0 0 15.001 19.998"><path d="M1307.5,10a3.786,3.786,0,0,0-3.749,3.809v1.9h-1.874a.771.771,0,0,0-.7.648L1300,29.216a.74.74,0,0,0,.7.781h13.589a.74.74,0,0,0,.7-.781l-1.172-12.855a.733.733,0,0,0-.7-.648h-1.874v-1.9A3.787,3.787,0,0,0,1307.5,10Zm0,1.428a2.341,2.341,0,0,1,2.343,2.381v1.9h-4.686v-1.9A2.341,2.341,0,0,1,1307.5,11.428Zm-4.979,5.713h9.958l1.04,11.428H1301.48Z" transform="translate(-1299.998 -10)" fill="#231f20"/></svg>