<svg xmlns="http://www.w3.org/2000/svg" width="36.01" height="39.988" viewBox="0 0 36.01 39.988"><path d="M1055.7,169.6l-3.658-1.344-.178-.69a4.243,4.243,0,0,0-2.639-2.948l-.867-.32a4.205,4.205,0,0,0-3.9.548l-.573.414-3.658-1.345a6.4,6.4,0,0,1-3.616-3.353,6.489,6.489,0,0,1-.215-4.951l7.7-21.342a6.41,6.41,0,0,1,3.321-3.651,6.331,6.331,0,0,1,4.9-.224l3.659,1.346.178.69a4.256,4.256,0,0,0,2.642,2.951l.86.315a4.187,4.187,0,0,0,3.9-.548l.577-.415,3.659,1.346a6.392,6.392,0,0,1,3.616,3.354,6.5,6.5,0,0,1,.217,4.95l-7.7,21.343a6.45,6.45,0,0,1-6.04,4.266A6.325,6.325,0,0,1,1055.7,169.6Zm-6.422-7.849.867.32a6.93,6.93,0,0,1,4.1,4.111l2.377.872a3.735,3.735,0,0,0,4.782-2.254l7.7-21.344a3.762,3.762,0,0,0-.128-2.878,3.714,3.714,0,0,0-2.1-1.952l-2.375-.873a6.855,6.855,0,0,1-5.761.491l-.862-.317a6.941,6.941,0,0,1-4.1-4.113l-2.376-.873a3.678,3.678,0,0,0-2.852.133,3.721,3.721,0,0,0-1.931,2.121l-7.7,21.344a3.767,3.767,0,0,0,.128,2.878,3.715,3.715,0,0,0,2.1,1.951l2.372.872a6.908,6.908,0,0,1,3.416-.907A6.809,6.809,0,0,1,1049.274,161.753Zm11.087-8.3-13.253-5.161a1.36,1.36,0,0,1-.771-1.752,1.342,1.342,0,0,1,1.736-.777l13.254,5.161a1.361,1.361,0,0,1,.771,1.752,1.338,1.338,0,0,1-1.737.777Z" transform="translate(-1035.999 -130.007)" fill="#fff"/></svg>