<svg height="32.015" viewBox="0 0 29.008 32.015" width="29.008" xmlns="http://www.w3.org/2000/svg"><path d="m323.867 933.682-2.948-1.076-.143-.554a3.4 3.4 0 0 0 -2.126-2.36l-.7-.256a3.4 3.4 0 0 0 -3.144.439l-.463.331-2.943-1.076a5.2 5.2 0 0 1 -3.086-6.648l6.2-17.086a5.178 5.178 0 0 1 6.626-3.1l2.948 1.077.143.553a3.416 3.416 0 0 0 2.128 2.362l.693.253a3.39 3.39 0 0 0 3.143-.44l.464-.331 2.948 1.078a5.2 5.2 0 0 1 3.088 6.647l-6.2 17.088a5.157 5.157 0 0 1 -6.627 3.1zm-5.174-6.284.7.256a5.566 5.566 0 0 1 3.3 3.291l1.914.7a3.015 3.015 0 0 0 3.852-1.8l6.2-17.088a3.031 3.031 0 0 0 -1.795-3.867l-1.913-.7a5.552 5.552 0 0 1 -4.641.394l-.694-.254a5.574 5.574 0 0 1 -3.3-3.292l-1.914-.7a3.016 3.016 0 0 0 -3.852 1.805l-6.2 17.089a3.029 3.029 0 0 0 1.794 3.866l1.912.7a5.59 5.59 0 0 1 2.751-.726 5.506 5.506 0 0 1 1.886.328zm8.932-6.646-10.677-4.132a1.084 1.084 0 0 1 .778-2.024l10.677 4.132a1.085 1.085 0 0 1 -.389 2.1 1.07 1.07 0 0 1 -.39-.077z" fill="#c3d8ef" transform="translate(-307.999 -901.98)"/></svg>