<svg height="13" viewBox="0 0 15.996 13" width="15.996" xmlns="http://www.w3.org/2000/svg"><path d="m1344.577 7720a9.274 9.274 0 0 0 9.338-9.337c0-.142 0-.284-.009-.424a6.685 6.685 0 0 0 1.637-1.7 6.556 6.556 0 0 1 -1.885.517 3.293 3.293 0 0 0 1.443-1.815 6.6 6.6 0 0 1 -2.084.8 3.284 3.284 0 0 0 -5.593 2.993 9.32 9.32 0 0 1 -6.765-3.429 3.285 3.285 0 0 0 1.016 4.381 3.263 3.263 0 0 1 -1.486-.41v.042a3.283 3.283 0 0 0 2.633 3.217 3.284 3.284 0 0 1 -.865.115 3.251 3.251 0 0 1 -.617-.059 3.286 3.286 0 0 0 3.066 2.28 6.587 6.587 0 0 1 -4.076 1.4 6.691 6.691 0 0 1 -.783-.045 9.293 9.293 0 0 0 5.031 1.474" fill="#231f20" transform="translate(-1339.547 -7707)"/></svg>